<svg xmlns="http://www.w3.org/2000/svg" width="50" height="50" viewBox="0 0 50 50" fill="none"><path fill="#000" fill-rule="evenodd" d="M5.336 8.84c-1.564 2.553-1.564 6.027-1.564 12.976v6.368c0 6.95 0 10.424 1.564 12.976a10.614 10.614 0 0 0 3.504 3.504c2.553 1.564 6.027 1.564 12.976 1.564h6.368c6.95 0 10.424 0 12.976-1.564a10.614 10.614 0 0 0 3.504-3.504c1.564-2.552 1.564-6.027 1.564-12.976v-6.368c0-6.949 0-10.423-1.564-12.976a10.614 10.614 0 0 0-3.504-3.504c-2.552-1.564-6.027-1.564-12.976-1.564h-6.368c-6.949 0-10.423 0-12.976 1.564A10.614 10.614 0 0 0 5.336 8.84Zm19.306 6.406a.331.331 0 0 1-.25.324l-4.822 1.183a.788.788 0 0 1-.435-.018l-2.107-.708a.78.78 0 0 0-.437-.018l-4.633 1.144a.326.326 0 0 1-.403-.324v-3.356c0-.154.104-.288.25-.324l4.786-1.182a.781.781 0 0 1 .437.018l2.107.707c.14.047.29.054.435.018l4.67-1.145a.327.327 0 0 1 .402.324V15.246Zm0 5.007a.331.331 0 0 1-.25.324l-4.821 1.183a.789.789 0 0 1-.436-.018l-2.107-.708a.781.781 0 0 0-.436-.018l-4.634 1.144a.325.325 0 0 1-.402-.324V18.48c0-.154.103-.288.25-.324l4.786-1.182a.781.781 0 0 1 .436.017l2.107.708c.14.047.29.054.436.018l4.67-1.145a.327.327 0 0 1 .403.324v3.356l-.001.001Z" clip-rule="evenodd"/></svg>
